<svg xmlns="http://www.w3.org/2000/svg" version="1.1" xmlns:xlink="http://www.w3.org/1999/xlink" xmlns:svgjs="http://svgjs.dev/svgjs" width="1000" height="166" viewBox="0 0 1000 166"><g transform="matrix(1,0,0,1,-0.606043891189131,0.15676611304080268)"><svg viewBox="0 0 396 66" data-background-color="#ffffff" preserveAspectRatio="xMidYMid meet" height="166" width="1000" xmlns="http://www.w3.org/2000/svg" xmlns:xlink="http://www.w3.org/1999/xlink"><g id="tight-bounds" transform="matrix(1,0,0,1,0.23999338091090294,-0.06232869554634135)"><svg viewBox="0 0 395.52 66.1246551794102" height="66.1246551794102" width="395.52"><g><svg viewBox="0 0 517.3492216607953 86.49256394027189" height="66.1246551794102" width="395.52"><g><rect width="5.643986017698774" height="62.89799331401826" x="101.41040313603162" y="11.797285313126817" fill="#000000" opacity="1" stroke-width="0" stroke="transparent" fill-opacity="1" class="rect-o-0" data-fill-palette-color="primary" rx="1%" id="o-0" data-palette-color="#000000"></rect></g><g transform="matrix(1,0,0,1,121.82922166079526,11.953747983062183)"><svg viewBox="0 0 395.52 62.58506797414753" height="62.58506797414753" width="395.52"><g id="textblocktransform"><svg viewBox="0 0 395.52 62.58506797414753" height="62.58506797414753" width="395.52" id="textblock"><g><svg viewBox="0 0 395.52 62.58506797414753" height="62.58506797414753" width="395.52"><g transform="matrix(1,0,0,1,0,0)"><svg width="395.52" viewBox="4.599999904632568 -34.900001525878906 225.239990234375 35.5" height="62.58506797414753" data-palette-color="#000000"><g class="wordmark-text-0" data-fill-palette-color="primary" id="text-0"><path d="M4.6 0L4.6-34.3 9.35-34.3 9.35 0 4.6 0ZM17.85 0L17.85-34.3 24.9-34.3 33.1-10.9Q33.8-8.9 34.65-5.75L34.65-5.75 34.85-5.75Q35.75-9.25 36.35-10.9L36.35-10.9 44.6-34.3 51.6-34.3 51.6 0 46.85 0 46.85-22.65 46.95-29.05 46.6-29.05Q46.2-27 45.75-25.75L45.75-25.75 36.45 0 32.5 0 23.35-25.75Q22.95-26.8 22.5-29.05L22.5-29.05 22.2-29.05 22.3-22.65 22.3 0 17.85 0ZM55.9 0L69.2-34.3 75.25-34.3 88.55 0 83.5 0 80.05-9.15 64.15-9.15 60.8 0 55.9 0ZM65.7-13.3L78.5-13.3 74.5-24 72.2-30.2 71.95-30.2 69.7-24.1 65.7-13.3ZM108.24 0.6Q99.84 0.6 95.54-3.83 91.24-8.25 91.24-17.15L91.24-17.15Q91.24-34.9 108.54-34.9L108.54-34.9Q115.64-34.9 119.94-31.75 124.24-28.6 124.24-22.6L124.24-22.6 119.39-22.6Q119.39-26.75 116.49-28.8 113.59-30.85 108.54-30.85L108.54-30.85Q102.29-30.85 99.24-27.65 96.19-24.45 96.19-17.15L96.19-17.15 96.19-17.05Q96.24-9.8 99.22-6.63 102.19-3.45 108.24-3.45L108.24-3.45Q114.04-3.45 116.77-5.85 119.49-8.25 119.49-13.2L119.49-13.2 119.49-13.7 107.39-13.7 107.39-17.85 124.24-17.85 124.24 0 120.54 0 120.19-3.8Q116.29 0.6 108.24 0.6L108.24 0.6ZM131.74 0L131.74-34.3 158.14-34.3 158.14-30.15 136.49-30.15 136.49-19.6 155.94-19.6 155.94-15.45 136.49-15.45 136.49-4.15 158.44-4.15 158.44 0 131.74 0ZM165.09 0L165.09-34.3 182.94-34.3Q188.09-34.3 190.84-31.65 193.59-29 193.59-24.55L193.59-24.55Q193.59-21.05 191.91-18.5 190.24-15.95 187.29-14.85L187.29-14.85 195.19 0 189.89 0 182.44-14.15 169.84-14.15 169.84 0 165.09 0ZM169.84-18.3L182.69-18.3Q185.49-18.3 187.14-19.95 188.79-21.6 188.79-24.5L188.79-24.5Q188.79-27.2 187.24-28.68 185.69-30.15 182.69-30.15L182.69-30.15 169.84-30.15 169.84-18.3ZM211.59 0L211.59-14.2 198.04-34.3 203.79-34.3 213.99-18.6 214.24-18.6 224.39-34.3 229.84-34.3 216.34-14.2 216.34 0 211.59 0Z" fill="#000000" data-fill-palette-color="primary"></path></g></svg></g></svg></g></svg></g></svg></g><g><svg viewBox="0 0 86.63557062896676 86.49256394027189" height="86.49256394027189" width="86.63557062896676"><g><svg xmlns="http://www.w3.org/2000/svg" xmlns:xlink="http://www.w3.org/1999/xlink" version="1.1" x="0" y="0" viewBox="0 0.20499849319458008 99.95999908447266 99.79499816894531" enable-background="new 0 0 100 100" xml:space="preserve" height="86.49256394027189" width="86.63557062896676" class="icon-icon-0" data-fill-palette-color="accent" id="icon-0"><g fill="#000000" data-fill-palette-color="accent"><circle cx="49.98" cy="50.02" r="8.3" fill="#000000" data-fill-palette-color="accent"></circle><path d="M57.492 7.246c0 3.889-3.152 26.404-7.041 26.404-3.888 0-7.041-22.516-7.041-26.404s3.153-7.041 7.041-7.041C54.34 0.205 57.492 3.357 57.492 7.246z" fill="#000000" data-fill-palette-color="accent"></path><path d="M43.41 92.958c0-3.889 3.153-26.403 7.041-26.403 3.889 0 7.041 22.515 7.041 26.403S54.34 100 50.451 100C46.563 100 43.41 96.847 43.41 92.958z" fill="#000000" data-fill-palette-color="accent"></path><path d="M85.757 24.872c-2.791 2.707-21.142 16.131-23.849 13.341-2.708-2.79 11.248-20.736 14.038-23.445 2.79-2.707 7.249-2.643 9.956 0.148C88.612 17.705 88.546 22.163 85.757 24.872z" fill="#000000" data-fill-palette-color="accent"></path><path d="M14.773 75.181c2.79-2.708 21.14-16.129 23.849-13.342 2.707 2.792-11.249 20.736-14.039 23.445-2.789 2.71-7.247 2.645-9.955-0.146C11.919 82.348 11.985 77.892 14.773 75.181z" fill="#000000" data-fill-palette-color="accent"></path><path d="M74.163 86.315c-2.63-2.866-15.548-21.574-12.685-24.207C64.342 59.479 81.9 73.92 84.53 76.785c2.633 2.861 2.445 7.316-0.416 9.947C81.25 89.364 76.797 89.177 74.163 86.315z" fill="#000000" data-fill-palette-color="accent"></path><path d="M24.717 14.668c2.716 2.781 16.189 21.094 13.407 23.809-2.781 2.717-20.767-11.188-23.483-13.973-2.717-2.779-2.664-7.239 0.12-9.957C17.542 11.832 22.002 11.885 24.717 14.668z" fill="#000000" data-fill-palette-color="accent"></path><path d="M7.041 42.756c3.89 0 26.403 3.154 26.403 7.042 0 3.889-22.514 7.042-26.403 7.042C3.153 56.84 0 53.687 0 49.798 0 45.91 3.153 42.756 7.041 42.756z" fill="#000000" data-fill-palette-color="accent"></path><path d="M92.918 57.059c-3.889 0-26.402-3.15-26.402-7.039s22.514-7.041 26.402-7.041c3.89 0 7.042 3.152 7.042 7.041S96.808 57.059 92.918 57.059z" fill="#000000" data-fill-palette-color="accent"></path></g></svg></g></svg></g></svg></g><defs></defs></svg><rect width="395.52" height="66.1246551794102" fill="none" stroke="none" visibility="hidden"></rect></g></svg></g></svg>